<svg fill="none" height="80" viewBox="0 0 80 80" width="80" xmlns="http://www.w3.org/2000/svg" xmlns:xlink="http://www.w3.org/1999/xlink"><linearGradient id="a"><stop offset=".00132565" stop-color="#ffcb4b"/><stop offset="1" stop-color="#ffd748"/></linearGradient><linearGradient id="b" gradientUnits="userSpaceOnUse" x1="27.4809" x2="40.6524" xlink:href="#a" y1="53.2304" y2="25.2408"/><linearGradient id="c"><stop offset="0" stop-color="#ffbc47" stop-opacity="0"/><stop offset="1" stop-color="#c86f34"/></linearGradient><linearGradient id="d" gradientUnits="userSpaceOnUse" x1="39.8166" x2="79.8605" xlink:href="#c" y1="39.4561" y2="71.8264"/><linearGradient id="e" gradientUnits="userSpaceOnUse" x1="25.2677" x2="38.4393" y1="52.1884" y2="24.1988"><stop offset="0" stop-color="#ffbb47" stop-opacity=".9686"/><stop offset=".0026513" stop-color="#ffba47"/><stop offset="1" stop-color="#ffd748" stop-opacity="0"/></linearGradient><linearGradient id="f" gradientUnits="userSpaceOnUse" x1="32.5464" x2="17.258" xlink:href="#c" y1="28.7399" y2="76.2516"/><linearGradient id="g" gradientUnits="userSpaceOnUse" x1="14.3709" x2="35.1867" xlink:href="#c" y1="30.4293" y2="-4.14607"/><linearGradient id="h" gradientUnits="userSpaceOnUse" x1="42.6872" x2="50.6254" xlink:href="#c" y1="42.1035" y2="11.1444"/><linearGradient id="i" gradientUnits="userSpaceOnUse" x1="65.7254" x2="20.8009" xlink:href="#a" y1="31.9528" y2="27.9543"/><linearGradient id="j" gradientUnits="userSpaceOnUse" x1="51.2631" x2="48.0878" xlink:href="#c" y1="9.59384" y2="72.7468"/><linearGradient id="k" gradientUnits="userSpaceOnUse" x1="35.1522" x2="38.6803" xlink:href="#a" y1="58.9722" y2="52.1512"/><linearGradient id="l" gradientUnits="userSpaceOnUse" x1="40.6485" x2="44.1766" xlink:href="#a" y1="61.8151" y2="54.9941"/><linearGradient id="m" gradientUnits="userSpaceOnUse" x1="42.4366" x2="20.4741" xlink:href="#c" y1="57.8909" y2="57.7145"/><linearGradient id="n" gradientUnits="userSpaceOnUse" x1="47.6666" x2="23.4991" xlink:href="#c" y1="52.0829" y2="85.4235"/><linearGradient id="o" gradientUnits="userSpaceOnUse" x1="20.7683" x2="27.8481" xlink:href="#a" y1="51.7153" y2="46.3203"/><linearGradient id="p" gradientUnits="userSpaceOnUse" x1="29.0073" x2="33.06" xlink:href="#a" y1="56.1611" y2="48.3259"/><linearGradient id="q" gradientUnits="userSpaceOnUse" x1="34.3471" x2="2.77063" xlink:href="#c" y1="50.6255" y2="47.2738"/><linearGradient id="r" gradientUnits="userSpaceOnUse" x1="37.7985" x2="10.4631" xlink:href="#c" y1="42.9665" y2="80.6773"/><linearGradient id="s" gradientUnits="userSpaceOnUse" x1="27.6801" x2="38.2853" xlink:href="#c" y1="12.3277" y2="45.2377"/><linearGradient id="t"><stop offset="0" stop-color="#fbe07a"/><stop offset=".2654" stop-color="#fcdf73" stop-opacity=".7346"/><stop offset=".6548" stop-color="#fddb5f" stop-opacity=".3452"/><stop offset="1" stop-color="#ffd748" stop-opacity="0"/></linearGradient><radialGradient id="u" cx="0" cy="0" gradientTransform="matrix(3.70570072 -5.07173657 2.47082138 1.80532338 31.3864 23.7058)" gradientUnits="userSpaceOnUse" r="1" xlink:href="#t"/><radialGradient id="v" cx="0" cy="0" gradientTransform="matrix(2.69748617 -6.12085107 4.35659128 1.91996907 13.5172 25.993)" gradientUnits="userSpaceOnUse" r="1" xlink:href="#t"/><radialGradient id="w" cx="0" cy="0" gradientTransform="matrix(6.39218815 2.02193956 -.89218553 2.82056786 48.793 25.2313)" gradientUnits="userSpaceOnUse" r="1" xlink:href="#t"/><radialGradient id="x" cx="0" cy="0" gradientTransform="matrix(3.27709654 4.91524843 -3.74122131 2.49434868 64.2613 28.2589)" gradientUnits="userSpaceOnUse" r="1" xlink:href="#t"/><path d="m50.0022 56.0284c-.0423 1.1899-2.4258 2.7789-5.911 2.7789-3.4851 0-19.4139-6.2333-23.375-12.3937-5.2469-8.1602-10.6742-10.4516-13.67194-12.2595-2.99768-1.8078 1.01331-12.2594 5.02814-15.3031 4.0148-3.0438 5.6461 2.468 10.4094 1.2359s13.0962-.2188 16.4047.8367c3.3086 1.0594 25.9774 14.9501 25.8009 20.0204-.1766 5.0704-1.0133 7.3657-4.675 7.454 0 0 .4414 3.9687-4.8938 4.057 0 .0039-.0653 4.414-5.1164 3.5734z" fill="url(#b)"/><path d="m58.2659 43.3156c-1.7042.2955-10.6704-5.4619-13.1998-5.3199-3.1742.1766 2.3413 1.6966 6.9665 4.3219 6.1143 3.4698 9.1734 6.7899 3.4391 8.2907-1.5853.4145-9.7953-6.6671-14.643-6.2641-1.0594.0883 3.512 2.3376 8.5708 5.5579s2.4987 4.3641-.1036 4.1031c-2.6024-.261-11.5532-5.2469-13.7142-4.8516-2.1609.3953 4.3641 1.9844 9.5266 5.2469 2.6484 1.6735-1.7924 2.5141-6.74 2.9325 2.5717.925 4.6942 1.4777 5.7229 1.4777 3.4851 0 5.8649-1.5891 5.9109-2.7789 5.0512.8367 5.1164-3.5735 5.1164-3.5735 5.3352-.0882 4.8938-4.057 4.8938-4.057 3.6617-.0883 4.4985-2.3797 4.675-7.4539.0039-.1459-.0115-.3032-.046-.4645l-3.7922-2.2837c.8252 2.9401-.879 4.8208-2.5832 5.1164z" fill="url(#d)"/><path d="m54.9996 53.2489c-.6026-.5911-1.2513-1.1937-1.9998-1.8078-16.0516-13.1921-18.2586-3.3009-25.7547-8.329-7.4962-5.0282-2.7329-10.4977-9.1735-10.8508-5.6461-.3109-8.92014-3.4698-10.17526-7.6343-1.86923 3.9457-2.71365 8.4058-.85209 9.5304 2.99765 1.8078 8.42495 4.1031 13.67195 12.2594 3.9611 6.1566 19.8899 12.3938 23.375 12.3938 3.4852 0 5.8649-1.5891 5.911-2.7789 3.677.6064 4.7095-1.5584 4.9974-2.7828z" fill="url(#e)"/><path d="m45.2695 38.4341c2.9286.9173 5.696 2.2953 8.3636 3.7999 1.3242.7715 2.6292 1.5813 3.9189 2.3989 1.4509.7139 2.1609 2.3068 2.4642 3.7653-.4376-1.4432-1.2014-2.9055-2.6062-3.535-1.3242-.7715-2.6216-1.5814-3.9534-2.326-2.6408-1.5353-5.3621-2.9171-8.1871-4.1031z" fill="#804b24"/><path d="m41.7998 44.6978c2.4258.8828 4.6865 2.1571 6.8974 3.4698 1.0939.6793 2.184 1.3664 3.251 2.088l3.1704 2.2031c-2.2531-1.2512-4.391-2.6829-6.6018-3.9918-1.0901-.6793-2.2032-1.3203-3.3163-1.9575-1.1169-.6295-2.2415-1.2513-3.4007-1.8116z" fill="#804b24"/><path d="m36.1538 49.5034c2.4527.7408 4.794 1.7925 7.1046 2.8787 2.2915 1.1285 4.5676 2.303 6.7439 3.6464-4.6175-2.1917-9.1504-4.5177-13.8485-6.5251z" fill="#804b24"/><path d="m49.3995 57.1034c-25.3518-3.0283-27.1826-14.144-30.1189-18.0206-2.9401-3.8805-.0576-6.8782-2.468-5.8227-2.111.925-7.19291 1.6274-10.67422-3.1781-.29171 1.9153-.0806 3.4737.91351 4.0763 2.99771 1.8078 8.42501 4.1031 13.67191 12.2594 3.9611 6.1566 19.8899 12.3938 23.3751 12.3938 2.4795-.0039 4.3871-.8137 5.3006-1.7081z" fill="url(#f)"/><path d="m29.713 19.5652c-2.6139-.1113-5.2354.0038-7.2275.522-4.4524 1.1553-6.1681-3.585-9.6532-1.7234 3.2203.0269 3.9035 3.8191 7.8608 3.7193 2.656-.0653 5.2737-.618 7.6112-.7408.4031-.6026.8675-1.2129 1.4087-1.7771z" fill="url(#g)"/><path d="m63.4515 46.8168c.8329-1.2091 1.1438-3.1167 1.2398-5.8688.1765-5.0703-22.4923-18.9648-25.8009-20.0204-2.0304-.6486-5.957-1.282-9.7876-1.3856-.3531-.0115-5.0895 6.3677-5.0012 8.4864.069 1.7042 1.2819 4.0149 5.6115 4.0149s5.0588-5.6154 7.3234-6.2488c3.5888-.9979 7.1776 5.6615 12.1136 7.9568 4.9399 2.2914 10.9352 4.7441 11.5225 5.7459.5681.9557 3.2932 3.7653 2.7789 7.3196z" fill="url(#h)"/><path d="m26.9842 30.3198c-2.1188-1.236-1.7656-3.6157-.7063-5.3813 1.0594-1.7656 3.3086-7.9375 9.1274-7.9375 5.2047 0 9.5842 3.0514 12.8352 4.3219 2.6753 1.044 5.7344 2.7328 7.9375 2.7328 2.2032 0 6.2257-2.1763 7.5845-3.2625 1.0286-.8214 3.7039-.0883 7.6727 7.143 3.9687 7.2313 2.6445 8.7321.6179 9.2617-2.0304.5297-4.9398 1.3243-5.6461 3.5274-.7062 2.2032-1.992 3.4161-1.992 3.4161s-1.8693-4.675-4.7979-6.5903c-4.8515-3.1743-9.0852-4.9399-11.4649-6.7016-2.3797-1.7656-8.3789-6.5289-10.8508-6.5289-2.4718 0-5.7305 8.3789-10.3172 5.9992z" fill="url(#i)"/><path d="m64.4149 44.1451s1.2897-1.2129 1.9921-3.416c.7062-2.2032 3.6156-2.9977 5.6461-3.5274 1.6428-.4299 2.8173-1.4931 1.1054-5.7152-7.7341-1.6236-5.0204 12.0176-11.3075 4.5368-6.5289-7.7609-11.6415-6.2909-13.8754-7.5268s-7.9836-5.4081-10.8047-5.4081-4.5407 8.0258-10.9314 6.6402c.2073.2149.4452.4184.7446.5911 4.5868 2.3797 7.8493-5.9992 10.3211-5.9992 2.4719 0 8.4673 4.7633 10.8508 6.5289 2.3797 1.7656 6.6134 3.5273 11.4649 6.7016 2.9248 1.9153 4.794 6.5941 4.794 6.5941z" fill="url(#j)"/><path d="m34.6991 61.9857c-2.4642-.1459-3.1819-2.8902-2.3797-5.1586 1.1015-3.1321 3.2778-3.5504 4.4523-3.5274 1.1746.023 3.3048.9212 2.7329 3.8805-.4337 2.2761-1.1016 5.0243-4.8055 4.8055z" fill="url(#k)"/><path d="m42.2297 63.1564c-1.5391 0-3.2241-.4913-3.0783-4.913.1459-4.4217 2.6446-4.3718 3.3201-4.3718.6756 0 3.0783.7868 3.0783 4.5215 0 3.7308-1.4931 4.7633-3.3201 4.7633z" fill="url(#l)"/><path d="m38.66 59.9435c-1.1093.1382-2.8633.2072-3.8575-.5182-1.2397-.9058-.9211-3.988.1497-5.7612-.9672.426-1.9844 1.3165-2.633 3.1589-.7984 2.2722-.0845 5.0127 2.3797 5.1586 2.2032.1343 3.3163-.7945 3.9611-2.0381z" fill="url(#m)"/><path d="m45.5498 58.3889c0-.7562-.1152-1.3626-.2802-1.8923-.2726 1.447-1.639 4.0455-3.0591 4.0455-1.2513 0-2.2454-.3377-3.0438-2.5755-.0038.0922-.0153.1766-.0192.2726-.1458 4.4216 1.5392 4.9129 3.0783 4.9129 1.8309.0039 3.324-1.0286 3.324-4.7632z" fill="url(#n)"/><path d="m22.0634 54.071c-2.4719-1.1515-2.9862-3.75-1.4202-7.1277s3.9496-2.4949 5.1241-1.946 3.2472 3.0361 1.9422 5.8495c-1.305 2.8135-3.6464 4.1569-5.6461 3.2242z" fill="url(#o)"/><path d="m27.2527 58.3546c-2.1648-1.4163-1.923-4.4217.403-7.7264 2.326-3.3048 4.3756-1.9998 5.3621-1.236.9864.7639 2.4526 3.823.4068 6.4637-1.5698 2.0304-2.9747 4.5867-6.1719 2.4987z" fill="url(#p)"/><path d="m22.8196 52.7509c-1.9306-.902-1.7464-5.8496.4299-8.2216-.9058.165-1.8501.7907-2.6024 2.4181-1.566 3.3777-1.0516 5.9762 1.4202 7.1277 1.9997.9327 4.3411-.4107 5.6461-3.2242-.0038-.0076-2.5985 2.967-4.8938 1.9z" fill="url(#q)"/><path d="m27.2566 58.3508c1.685 1.1016 2.8711.9058 3.846.1842-1.5468-.0499-3.7078-.8674-3.7078-3.0783 0-2.6368 1.6773-5.5155 4.7288-6.6478-1.1054-.5489-2.706-.6871-4.4639 1.8155-2.326 3.3086-2.5717 6.3139-.4031 7.7264z" fill="url(#r)"/><g fill="#804b24"><path d="m20.6433 46.9432c.4261-.9289 1.0363-1.8654 2.0189-2.3107.9903-.4414 2.138-.2034 3.0668.238.9749.4721 1.6697 1.3472 2.1149 2.303.4414.9672.5258 2.0995.2188 3.1243-.0192.0691-.0921.1075-.1612.0883-.0154-.0038-.0307-.0154-.0422-.023l-.0039-.0039c-.0576-.0422-.0691-.1266-.023-.1842.7024-.8828 1.6466-1.804 2.9056-1.8424.6102-.0307 1.2052.1727 1.7157.4644.4989.2841 1.0018.6679 1.3203 1.1822.6487.9941.9404 2.2032.8253 3.3777-.0154.1459-.0307.2956-.0653.4376l-.0422.2188v.0076c.2149.1497-.2917-.1957-.238-.1612l.0115-.0077.0231-.0153.046-.0307.096-.0576c.2571-.1497.5258-.2725.806-.3685.5642-.188 1.1553-.2648 1.7503-.2149 1.1821.1036 2.326.9365 2.6138 2.1226.0461.142.0653.2878.0883.4337l.0077.0537.0038.0269v.0077c.0499.0115-.4222-.0576-.2226-.0346l.0038-.0115.0461-.0998.0921-.1996c.1344-.261.2879-.5181.4875-.7369.38-.4568.9327-.7638 1.5084-.8828 1.163-.3263 2.422.3224 3.063 1.2666.6908.9519.8866 2.1418.8751 3.274-.0269-1.1322-.2687-2.3106-.9711-3.2049-.6871-.8867-1.8193-1.4547-2.9286-1.1438-.5374.119-1.0363.4068-1.3856.8329-.1804.2073-.3224.4491-.4453.6947l-.0844.1919-.0422.096-.0039.0115c.1996.0269-.2725-.0307-.2264-.0269v-.0076l-.0039-.0269-.0076-.0499c-.0231-.1343-.0423-.2725-.0845-.403-.2725-1.0824-1.3203-1.8194-2.4104-1.9076-.545-.0384-1.1093.0383-1.6274.2187-.261.0922-.5105.2073-.7447.3493l-.0882.0576-.0423.0269-.023.0153-.0115.0077c.0499.0384-.4529-.3147-.238-.1689v-.0077l.0384-.2034c.0307-.1343.0422-.2725.0537-.4107.0998-1.1016-.2111-2.23-.7945-3.1589-.284-.4721-.7101-.8022-1.1937-1.0939-.4721-.2802-1.0018-.4606-1.543-.4414-1.1092.0115-2.0151.8444-2.7098 1.7004l-.023-.1843.0038.0039-.2072.0652c.2993-.9634.2379-2.0266-.1728-2.9555-.4107-.9173-1.0824-1.7771-1.9843-2.2223-.9136-.4337-1.9844-.7024-2.9478-.3148-.9596.3992-1.6044 1.3012-2.0612 2.2186z"/><path d="m33.0217 49.3924c-.7254-.4913-1.5698-.8713-2.4104-.7638-.8367.1036-1.5583.6333-2.1341 1.2627-.5911.6257-1.067 1.3703-1.5199 2.1149-.4376.7523-.8291 1.543-1.0747 2.3951.119-.879.4299-1.7311.8367-2.5256.4145-.7907.8982-1.543 1.5008-2.2223.6218-.6372 1.4201-1.2321 2.3682-1.2897.9519-.0691 1.7925.4414 2.4334 1.0287z"/><path d="m33.9582 50.6777c.7293 1.2129.8636 2.8173.2764 4.1607-.2956.6756-.7754 1.2283-1.2053 1.7695-.4414.5488-.9058 1.0939-1.4585 1.5353.4606-.5336.8406-1.1208 1.2436-1.6965.3992-.5873.8521-1.1131 1.1016-1.7465.568-1.2436.4951-2.6944.0422-4.0225z"/><path d="m38.545 53.9175c.5259.3186.9366.8598 1.0978 1.4816.1765.6179.1305 1.2704.0268 1.8807-.2494 1.1783-.5527 2.468-1.4355 3.3662.3263-.522.5336-1.0901.6986-1.6658.1612-.5796.2879-1.1669.3915-1.7656.2648-1.1477.1382-2.4335-.7792-3.2971z"/></g><path d="m36.5453 17.0816c-.38-.0307-.7523-.0806-1.14-.0806-5.8227 0-8.0719 6.1758-9.1274 7.9375-.9097 1.5123-1.2743 3.4698-.0269 4.7787.1267.1343.0039-.5029-.2418-1.1438-.5373-1.3972 1.2244-9.1697 10.5361-11.4918z" fill="url(#s)"/><path d="m35.4051 17.001c-1.3779.0077-2.7482.4069-3.8958 1.1515-1.1592.7369-2.1034 1.7579-2.8902 2.8749-.7869 1.1246-1.4087 2.3451-2.0381 3.5734-.7063 1.1553-1.259 2.5064-.9366 3.8267.1574.641.5604 1.2129 1.1054 1.5891.5489.3761 1.2129.5489 1.8654.5949 1.3434-.0307 2.5218-.8713 3.5005-1.7886.9942-.9366 1.8424-2.019 2.7789-3.0399.4683-.5067.9558-1.021 1.5968-1.3818.6755-.4107 1.4892-.1958 2.1225.0269 2.6101 1.0516 4.8094 2.7558 7.0394 4.3641 1.1131.8098 2.1802 1.6965 3.3124 2.4526 1.1439.7485 2.3606 1.3972 3.5658 2.0573 2.4219 1.3089 4.8362 2.6484 7.1315 4.1722 1.1515.7946 2.0535 1.8769 2.8211 3.0169.76 1.1515 1.4087 2.3759 1.9307 3.6464-1.1361-2.4719-2.5793-4.9667-4.8478-6.5212-2.3068-1.5008-4.721-2.8173-7.1507-4.1108-1.2128-.6525-2.4334-1.2935-3.5964-2.0458-1.163-.7677-2.2224-1.6351-3.3431-2.4373-2.2262-1.5852-4.4601-3.2741-6.9819-4.2682-.6294-.2226-1.3011-.3992-1.8462-.0614-.5642.3109-1.0516.806-1.5161 1.3012-.9327.9979-1.7925 2.0842-2.8134 3.0322-1.0018.925-2.2377 1.8117-3.7001 1.8385-.7139-.0537-1.4202-.2456-2.0074-.6525-.5835-.4068-1.0249-1.0363-1.1899-1.7349-.3378-1.424.2764-2.8326.9826-3.9803.6333-1.2167 1.2705-2.4526 2.0765-3.5772.8176-1.1131 1.8001-2.1303 2.9862-2.848 1.1745-.7216 2.5601-1.0939 3.938-1.0709z" fill="#804b24"/><path d="m35.1175 18.855c1.424.9519.3607 3.9227-1.4279 6.7784-1.4624 2.3337-4.4255 4.0686-5.7919 3.1052-1.3665-.9673-2.3913-2.0919.9902-6.7247 1.9921-2.729 4.8363-4.0877 6.2296-3.1589z" fill="url(#u)" opacity=".75"/><path d="m16.3711 20.1175c2.468 1.0017 2.4373 4.5099 1.3396 7.9337-.8982 2.8019-4.1991 5.0127-6.5942 3.9879-2.39504-1.021-4.3871-2.253-1.92677-7.8416 1.44317-3.2894 4.76717-5.0588 7.18137-4.08z" fill="url(#v)" opacity=".75"/><path d="m54.9343 27.3259c-.9097 1.447-4.5023 1.2167-8.0604.3339-2.9094-.7216-5.3275-2.871-4.3948-4.272s2.1034-2.5448 7.9375-.6986c3.4429 1.0863 5.4081 3.2242 4.5177 4.6367z" fill="url(#w)" opacity=".75"/><path d="m67.2436 33.1332c-2.303 1.0748-5.1049-.7638-7.1891-3.2471-1.7004-2.0343-1.4739-5.3122.8022-6.3293 2.2761-1.0172 4.4793-1.6659 7.4731 2.8172 1.7695 2.6446 1.1668 5.7076-1.0862 6.7592z" fill="url(#x)" opacity=".75"/></svg>